<mxfile host="app.diagrams.net" modified="2021-07-22T10:26:23.620Z" agent="5.0 (Windows NT 10.0; Win64; x64) AppleWebKit/537.36 (KHTML, like Gecko) Chrome/91.0.4472.124 Safari/537.36" etag="DyxzpYYEueIorZdOC1__" version="14.9.0" type="github">
  <diagram id="ZNa-wCwPPQRgIEzYIOec" name="Page-1">
    <mxGraphModel dx="691" dy="441" grid="1" gridSize="10" guides="1" tooltips="1" connect="1" arrows="1" fold="1" page="1" pageScale="1" pageWidth="827" pageHeight="1169" math="0" shadow="0">
      <root>
        <mxCell id="0" />
        <mxCell id="1" parent="0" />
        <mxCell id="bmDj7M7-oMtAyaE8z1Wn-20" value="&lt;font style=&quot;font-size: 8px&quot;&gt;Workflow Service: ProposalAutomaticUpdateController&lt;br&gt;proposalChangeRequestListener&lt;br&gt;&lt;/font&gt;" style="shape=umlLifeline;perimeter=lifelinePerimeter;whiteSpace=wrap;html=1;container=1;collapsible=0;recursiveResize=0;outlineConnect=0;shadow=0;sketch=0;fontFamily=Verdana;strokeColor=#b85450;strokeWidth=1;fillColor=#f8cecc;size=50;" vertex="1" parent="1">
          <mxGeometry x="120" y="30" width="160" height="650" as="geometry" />
        </mxCell>
        <mxCell id="bmDj7M7-oMtAyaE8z1Wn-67" value="" style="html=1;points=[];perimeter=orthogonalPerimeter;shadow=0;sketch=0;fontFamily=Verdana;strokeColor=#d79b00;strokeWidth=1;fillColor=#ffe6cc;" vertex="1" parent="bmDj7M7-oMtAyaE8z1Wn-20">
          <mxGeometry x="75" y="80" width="10" height="80" as="geometry" />
        </mxCell>
        <mxCell id="bmDj7M7-oMtAyaE8z1Wn-21" value="&lt;font style=&quot;font-size: 8px&quot;&gt;workflow Service:&lt;br&gt;ProposalAutoMaticUpdateService&lt;/font&gt;" style="shape=umlLifeline;perimeter=lifelinePerimeter;whiteSpace=wrap;html=1;container=1;collapsible=0;recursiveResize=0;outlineConnect=0;shadow=0;sketch=0;fontFamily=Verdana;strokeColor=#b85450;strokeWidth=1;fillColor=#f8cecc;size=50;" vertex="1" parent="1">
          <mxGeometry x="320" y="30" width="160" height="650" as="geometry" />
        </mxCell>
        <mxCell id="bmDj7M7-oMtAyaE8z1Wn-68" value="" style="html=1;points=[];perimeter=orthogonalPerimeter;shadow=0;sketch=0;fontFamily=Verdana;strokeColor=#d79b00;strokeWidth=1;fillColor=#ffe6cc;" vertex="1" parent="bmDj7M7-oMtAyaE8z1Wn-21">
          <mxGeometry x="75" y="100" width="10" height="110" as="geometry" />
        </mxCell>
        <mxCell id="bmDj7M7-oMtAyaE8z1Wn-22" value="&lt;font style=&quot;font-size: 8px&quot;&gt;workflow Service:&lt;br&gt;ProposalChangeRequestConsumer&lt;/font&gt;" style="shape=umlLifeline;perimeter=lifelinePerimeter;whiteSpace=wrap;html=1;container=1;collapsible=0;recursiveResize=0;outlineConnect=0;shadow=0;sketch=0;fontFamily=Verdana;strokeColor=#b85450;strokeWidth=1;fillColor=#f8cecc;size=50;" vertex="1" parent="1">
          <mxGeometry x="520" y="30" width="160" height="650" as="geometry" />
        </mxCell>
        <mxCell id="bmDj7M7-oMtAyaE8z1Wn-71" value="" style="html=1;points=[];perimeter=orthogonalPerimeter;shadow=0;sketch=0;fontFamily=Verdana;strokeColor=#d79b00;strokeWidth=1;fillColor=#ffe6cc;" vertex="1" parent="bmDj7M7-oMtAyaE8z1Wn-22">
          <mxGeometry x="75" y="120" width="10" height="50" as="geometry" />
        </mxCell>
        <mxCell id="bmDj7M7-oMtAyaE8z1Wn-74" value="" style="html=1;points=[];perimeter=orthogonalPerimeter;shadow=0;sketch=0;fontFamily=Verdana;strokeColor=#d79b00;strokeWidth=1;fillColor=#ffe6cc;" vertex="1" parent="bmDj7M7-oMtAyaE8z1Wn-22">
          <mxGeometry x="75" y="190" width="10" height="380" as="geometry" />
        </mxCell>
        <mxCell id="bmDj7M7-oMtAyaE8z1Wn-76" value="" style="html=1;points=[];perimeter=orthogonalPerimeter;shadow=0;sketch=0;fontFamily=Verdana;strokeColor=#b85450;strokeWidth=1;fillColor=#f8cecc;" vertex="1" parent="bmDj7M7-oMtAyaE8z1Wn-22">
          <mxGeometry x="80" y="250" width="10" height="310" as="geometry" />
        </mxCell>
        <mxCell id="bmDj7M7-oMtAyaE8z1Wn-77" value="&lt;font style=&quot;font-size: 8px&quot;&gt;validateProposalChangeRequest()&lt;br&gt;Check Proposal Needs to Update or not&lt;/font&gt;" style="edgeStyle=orthogonalEdgeStyle;html=1;align=left;spacingLeft=2;endArrow=block;rounded=0;entryX=1;entryY=0;fontFamily=Verdana;" edge="1" target="bmDj7M7-oMtAyaE8z1Wn-76" parent="bmDj7M7-oMtAyaE8z1Wn-22" source="bmDj7M7-oMtAyaE8z1Wn-74">
          <mxGeometry x="-0.0435" y="-10" relative="1" as="geometry">
            <mxPoint x="140" y="220" as="sourcePoint" />
            <Array as="points">
              <mxPoint x="130" y="220" />
              <mxPoint x="130" y="250" />
            </Array>
            <mxPoint as="offset" />
          </mxGeometry>
        </mxCell>
        <mxCell id="bmDj7M7-oMtAyaE8z1Wn-80" value="" style="html=1;points=[];perimeter=orthogonalPerimeter;shadow=0;sketch=0;fontFamily=Verdana;strokeColor=#9673a6;strokeWidth=1;fillColor=#e1d5e7;" vertex="1" parent="bmDj7M7-oMtAyaE8z1Wn-22">
          <mxGeometry x="85" y="290" width="10" height="60" as="geometry" />
        </mxCell>
        <mxCell id="bmDj7M7-oMtAyaE8z1Wn-81" value="&lt;span style=&quot;font-size: 8px&quot;&gt;getProposalModel()&lt;/span&gt;" style="edgeStyle=orthogonalEdgeStyle;html=1;align=left;spacingLeft=2;endArrow=block;rounded=0;fontFamily=Verdana;" edge="1" parent="bmDj7M7-oMtAyaE8z1Wn-22" target="bmDj7M7-oMtAyaE8z1Wn-80" source="bmDj7M7-oMtAyaE8z1Wn-76">
          <mxGeometry x="-0.0909" relative="1" as="geometry">
            <mxPoint x="85" y="270" as="sourcePoint" />
            <Array as="points">
              <mxPoint x="130" y="270" />
              <mxPoint x="130" y="300" />
            </Array>
            <mxPoint as="offset" />
          </mxGeometry>
        </mxCell>
        <mxCell id="bmDj7M7-oMtAyaE8z1Wn-93" value="" style="html=1;points=[];perimeter=orthogonalPerimeter;shadow=0;sketch=0;fontFamily=Verdana;strokeColor=#9673a6;strokeWidth=1;fillColor=#e1d5e7;" vertex="1" parent="bmDj7M7-oMtAyaE8z1Wn-22">
          <mxGeometry x="85" y="380" width="10" height="70" as="geometry" />
        </mxCell>
        <mxCell id="bmDj7M7-oMtAyaE8z1Wn-94" value="" style="edgeStyle=orthogonalEdgeStyle;html=1;align=left;spacingLeft=2;endArrow=block;rounded=0;fontFamily=Verdana;" edge="1" parent="bmDj7M7-oMtAyaE8z1Wn-22" source="bmDj7M7-oMtAyaE8z1Wn-76" target="bmDj7M7-oMtAyaE8z1Wn-93">
          <mxGeometry x="-0.0909" relative="1" as="geometry">
            <mxPoint x="130" y="410" as="sourcePoint" />
            <Array as="points">
              <mxPoint x="140" y="360" />
              <mxPoint x="140" y="390" />
            </Array>
            <mxPoint as="offset" />
            <mxPoint x="135" y="440" as="targetPoint" />
          </mxGeometry>
        </mxCell>
        <mxCell id="bmDj7M7-oMtAyaE8z1Wn-95" value="&lt;font style=&quot;font-size: 8px&quot;&gt;generateProposalChangeRequestDetails()&lt;/font&gt;" style="edgeLabel;html=1;align=center;verticalAlign=middle;resizable=0;points=[];fontFamily=Verdana;" vertex="1" connectable="0" parent="bmDj7M7-oMtAyaE8z1Wn-94">
          <mxGeometry x="-0.136" relative="1" as="geometry">
            <mxPoint x="50" y="11" as="offset" />
          </mxGeometry>
        </mxCell>
        <mxCell id="bmDj7M7-oMtAyaE8z1Wn-66" value="SQS Message" style="html=1;verticalAlign=bottom;startArrow=circle;startFill=1;endArrow=open;startSize=6;endSize=8;fontFamily=Verdana;" edge="1" parent="1" target="bmDj7M7-oMtAyaE8z1Wn-67">
          <mxGeometry width="80" relative="1" as="geometry">
            <mxPoint x="40" y="130" as="sourcePoint" />
            <mxPoint x="120" y="130" as="targetPoint" />
          </mxGeometry>
        </mxCell>
        <mxCell id="bmDj7M7-oMtAyaE8z1Wn-69" value="handleProposalChangeRequest()" style="html=1;verticalAlign=bottom;endArrow=block;fontFamily=Verdana;" edge="1" target="bmDj7M7-oMtAyaE8z1Wn-68" parent="1" source="bmDj7M7-oMtAyaE8z1Wn-67">
          <mxGeometry relative="1" as="geometry">
            <mxPoint x="405" y="150" as="sourcePoint" />
            <Array as="points">
              <mxPoint x="360" y="140" />
            </Array>
          </mxGeometry>
        </mxCell>
        <mxCell id="bmDj7M7-oMtAyaE8z1Wn-72" value="lockProposalChangeRequest()" style="html=1;verticalAlign=bottom;endArrow=block;fontFamily=Verdana;" edge="1" target="bmDj7M7-oMtAyaE8z1Wn-71" parent="1" source="bmDj7M7-oMtAyaE8z1Wn-68">
          <mxGeometry relative="1" as="geometry">
            <mxPoint x="580" y="160" as="sourcePoint" />
            <Array as="points">
              <mxPoint x="590" y="160" />
            </Array>
          </mxGeometry>
        </mxCell>
        <mxCell id="bmDj7M7-oMtAyaE8z1Wn-73" value="boolean" style="html=1;verticalAlign=bottom;endArrow=open;dashed=1;endSize=8;fontFamily=Verdana;" edge="1" source="bmDj7M7-oMtAyaE8z1Wn-71" parent="1" target="bmDj7M7-oMtAyaE8z1Wn-68">
          <mxGeometry relative="1" as="geometry">
            <mxPoint x="580" y="236" as="targetPoint" />
            <Array as="points">
              <mxPoint x="560" y="190" />
              <mxPoint x="530" y="190" />
            </Array>
          </mxGeometry>
        </mxCell>
        <mxCell id="bmDj7M7-oMtAyaE8z1Wn-75" value="execute()" style="html=1;verticalAlign=bottom;endArrow=block;fontFamily=Verdana;" edge="1" parent="1" source="bmDj7M7-oMtAyaE8z1Wn-68" target="bmDj7M7-oMtAyaE8z1Wn-74">
          <mxGeometry width="80" relative="1" as="geometry">
            <mxPoint x="570" y="250" as="sourcePoint" />
            <mxPoint x="650" y="250" as="targetPoint" />
            <Array as="points">
              <mxPoint x="570" y="230" />
            </Array>
          </mxGeometry>
        </mxCell>
        <mxCell id="bmDj7M7-oMtAyaE8z1Wn-82" value="&lt;font style=&quot;font-size: 8px&quot;&gt;workflow Service:&lt;br&gt;KrogerNProposalService&lt;br&gt;&lt;/font&gt;" style="shape=umlLifeline;perimeter=lifelinePerimeter;whiteSpace=wrap;html=1;container=1;collapsible=0;recursiveResize=0;outlineConnect=0;shadow=0;sketch=0;fontFamily=Verdana;strokeColor=#b85450;strokeWidth=1;fillColor=#f8cecc;size=50;" vertex="1" parent="1">
          <mxGeometry x="720" y="30" width="160" height="650" as="geometry" />
        </mxCell>
        <mxCell id="bmDj7M7-oMtAyaE8z1Wn-87" value="" style="html=1;points=[];perimeter=orthogonalPerimeter;shadow=0;sketch=0;fontFamily=Verdana;strokeColor=#d79b00;strokeWidth=1;fillColor=#ffe6cc;" vertex="1" parent="bmDj7M7-oMtAyaE8z1Wn-82">
          <mxGeometry x="75" y="310" width="10" height="40" as="geometry" />
        </mxCell>
        <mxCell id="bmDj7M7-oMtAyaE8z1Wn-89" value="&lt;font style=&quot;font-size: 8px&quot;&gt;getProposalWorkItem()&lt;/font&gt;" style="html=1;verticalAlign=bottom;endArrow=block;fontFamily=Verdana;" edge="1" parent="1" source="bmDj7M7-oMtAyaE8z1Wn-80" target="bmDj7M7-oMtAyaE8z1Wn-87">
          <mxGeometry width="80" relative="1" as="geometry">
            <mxPoint x="650" y="350" as="sourcePoint" />
            <mxPoint x="840" y="350" as="targetPoint" />
            <Array as="points">
              <mxPoint x="770" y="350" />
            </Array>
          </mxGeometry>
        </mxCell>
        <mxCell id="bmDj7M7-oMtAyaE8z1Wn-92" value="&lt;font style=&quot;font-size: 8px&quot;&gt;NProposalWorkItem&lt;/font&gt;" style="html=1;verticalAlign=bottom;endArrow=open;dashed=1;endSize=8;fontFamily=Verdana;" edge="1" parent="1" source="bmDj7M7-oMtAyaE8z1Wn-87" target="bmDj7M7-oMtAyaE8z1Wn-80">
          <mxGeometry relative="1" as="geometry">
            <mxPoint x="790" y="370" as="sourcePoint" />
            <mxPoint x="710" y="370" as="targetPoint" />
            <Array as="points">
              <mxPoint x="690" y="370" />
            </Array>
          </mxGeometry>
        </mxCell>
      </root>
    </mxGraphModel>
  </diagram>
</mxfile>
